<?xml version="1.0"?>
<svg xmlns:rdf="http://www.w3.org/1999/02/22-rdf-syntax-ns#" xmlns="http://www.w3.org/2000/svg" xmlns:cc="http://web.resource.org/cc/" xmlns:xlink="http://www.w3.org/1999/xlink" xmlns:dc="http://purl.org/dc/elements/1.1/" enable-background="new 0 0 500 500" xml:space="preserve" version="1.1" y="0px" x="0px" viewBox="0 0 500 500">
<g id="Art">
	<g id="Outlines">
		<path d="m268 24.461s27.691-18.461 56.923-4.615c5.385 14.615-1.066 29.23-5.148 36.154-4.082 13.846-4.852 14.615-4.852 32.308s-0.297 98.462 4.852 106.92 3.312 20.769 0 22.308-8.697 3.846-8.697 3.846-1.836 37.692 8.697 215.38c-17.159 18.462-70.236 66.154-123.31 43.077-23.846-10.77-20.452-33.847-20.452-55.385s18.145-37.693 23.529-40.77 32.861-6.153 48.354-1.538 43.954 13.077 43.954 13.077-0.769-139.23-3.076-165.38c-6.924-6.923-16.154-20-15.385-27.692 4.615-13.846 6.922-11.539 8.461-31.539s-3.84-97.698-6.15-110.78c-4.61-6.149-15.38-16.917-7.69-35.379z" fill="#050606"/>
	</g>
	<g id="Color">
		<linearGradient id="SVGID_1_" y2="121.6" gradientUnits="userSpaceOnUse" y1="121.6" x2="316.9" x1="272.74">
			<stop stop-color="#2B2B2B" offset=".2184"/>
			<stop stop-color="#222" offset=".5415"/>
			<stop stop-color="#0D0D0D" offset="1"/>
		</linearGradient>
		<path d="m314.15 25.999s-24.616-6.154-39.231 3.846c-3.846 7.692-3.076 19.23 6.154 25.384 0.769 10.77 14.615 123.08-0.77 149.23 1.538 6.154 2.308 11.538 7.692 14.615v-7.692l21.538-7.692v10.769s12.309 4.616 4.616-18.461c-2.309-12.308-6.924-115.38-4.616-138.46 3.077-6.923 7.146-11.539 7.146-11.539s1.32-14.627-2.53-20.012z" fill="url(#SVGID_1_)"/>
		<linearGradient id="SVGID_2_" y2="343.45" gradientUnits="userSpaceOnUse" y1="343.45" x2="311.85" x1="181.85">
			<stop stop-color="#7D7D7D" offset="0"/>
			<stop stop-color="#A6A6A6" offset=".977"/>
		</linearGradient>
		<path d="m311.85 431.38s-33.076 47.693-87.692 45.385c-27.692 1.538-42.308-20-42.308-36.154s7.693-48.461 29.231-52.308 66.688 6.923 87.692 19.23c0-22.308-7.103-194.87-7.103-194.87s8.129-3.667 13-2.333c0.66 8.34 7.18 221.05 7.18 221.05z" fill="url(#SVGID_2_)"/>
	</g>
	<g id="Iron_x5F_Lines" stroke="#414042" stroke-miterlimit="10">
			<line y2="466.63" stroke-width="8" y1="396.87" x2="217.69" x1="212.31" fill="#726658"/>
		<line y2="412.23" stroke-width="4" y1="407.3" x2="286" x1="215.16" fill="none"/>
			<line y2="421.14" stroke-width="4" y1="425.8" x2="286.21" x1="215.57" fill="none"/>
		<line y2="428.5" stroke-width="4" y1="443" x2="286.21" x1="217.69" fill="none"/>
		<line y2="435.75" stroke-width="4" y1="458" x2="289.5" x1="217.69" fill="none"/>
	</g>
</g>
<metadata><rdf:RDF><cc:Work><dc:format>image/svg+xml</dc:format><dc:type rdf:resource="http://purl.org/dc/dcmitype/StillImage"/><cc:license rdf:resource="http://creativecommons.org/licenses/publicdomain/"/><dc:publisher><cc:Agent rdf:about="http://openclipart.org/"><dc:title>Openclipart</dc:title></cc:Agent></dc:publisher></cc:Work><cc:License rdf:about="http://creativecommons.org/licenses/publicdomain/"><cc:permits rdf:resource="http://creativecommons.org/ns#Reproduction"/><cc:permits rdf:resource="http://creativecommons.org/ns#Distribution"/><cc:permits rdf:resource="http://creativecommons.org/ns#DerivativeWorks"/></cc:License></rdf:RDF></metadata></svg>
